<svg width="24" height="28" viewBox="0 0 24 28" fill="none" xmlns="http://www.w3.org/2000/svg">
<path d="M6.435 11.2069C6.22714 11.0509 6.01875 10.9729 5.81089 10.9729H4.87661V16.5938H5.81143C6.01929 16.5938 6.22768 16.5158 6.43554 16.3598C6.64339 16.2037 6.74732 15.9697 6.74732 15.6571V11.9096C6.74679 11.5975 6.64232 11.3629 6.435 11.2069V11.2069ZM21.6482 1.72174H2.35179C1.05536 1.72174 0.00321429 2.77577 0 4.07837V23.4695C0.00321429 24.7721 1.05536 25.8261 2.35179 25.8261H21.6482C22.9452 25.8261 23.9968 24.7721 24 23.4695V4.07837C23.9968 2.77577 22.9446 1.72174 21.6482 1.72174V1.72174ZM8.26071 15.6673C8.26071 16.6793 7.63875 18.2128 5.67 18.2095H3.18429V9.30708H5.7225C7.62107 9.30708 8.25964 10.8383 8.26018 11.8509L8.26071 15.6673ZM13.6543 10.897H10.8V12.9642H12.5448V14.5552H10.8V16.6218H13.6548V18.2128H10.3238C9.72589 18.2284 9.22875 17.7538 9.21375 17.1534V10.4219C9.19929 9.82199 9.67232 9.32376 10.2696 9.30869H13.6548L13.6543 10.897ZM19.2064 17.1001C18.4993 18.7546 17.2323 18.4253 16.665 17.1001L14.6009 9.30923H16.3457L17.9373 15.4279L19.5214 9.30923H21.2668L19.2064 17.1001V17.1001Z" fill="#2AC3DE"/>
</svg>
