<svg width="24" height="24" viewBox="0 0 24 24" fill="none" xmlns="http://www.w3.org/2000/svg">
<g clip-path="url(#clip0_2_32)">
<path d="M10.15 8.42C9.77462 8.27286 9.3729 8.20477 8.97 8.22C8.60655 8.21241 8.24293 8.21908 7.88 8.24V11.6L8.27 11.62H8.8C9.19 11.62 9.58 11.56 9.95 11.44C10.27 11.35 10.55 11.16 10.77 10.91C10.98 10.66 11.08 10.32 11.08 9.88C11.1026 9.569 11.0243 9.259 10.8568 8.996C10.6892 8.733 10.4414 8.53101 10.15 8.42ZM19.75 0.300003H4.25C3.12283 0.300003 2.04183 0.74777 1.2448 1.5448C0.447767 2.34183 0 3.42283 0 4.55L0 19.45C0 21.8 1.9 23.7 4.25 23.7H19.75C22.1 23.7 24 21.8 24 19.45V4.55C24 2.2 22.1 0.300003 19.75 0.300003ZM12.66 11.95C12.26 12.51 11.7 12.93 11.05 13.17C10.37 13.42 9.62 13.51 8.8 13.51L8.3 13.5L7.87 13.49V16.7C7.87284 16.7165 7.87217 16.7335 7.86805 16.7498C7.86393 16.766 7.85645 16.7812 7.84609 16.7944C7.83572 16.8076 7.8227 16.8185 7.80787 16.8263C7.79305 16.8342 7.77674 16.8388 7.76 16.84H5.82C5.74 16.84 5.7 16.8 5.7 16.71V6.42C5.7 6.35 5.73 6.31 5.8 6.31L6.36 6.3L7.12 6.28L7.99 6.26L8.9 6.25C9.72 6.25 10.4 6.35 10.96 6.56C11.46 6.73 11.92 7.01 12.3 7.38C12.62 7.7 12.87 8.09 13.03 8.52C13.18 8.94 13.26 9.37 13.26 9.82C13.26 10.68 13.06 11.39 12.66 11.95V11.95ZM19.48 8.8V10.75C19.48 10.83 19.43 10.86 19.32 10.86C18.6602 10.836 18.0036 10.9626 17.4 11.23C17.21 11.32 17.03 11.44 16.89 11.6V16.7C16.89 16.8 16.85 16.84 16.76 16.84H14.79C14.7716 16.8428 14.7528 16.8419 14.7347 16.8374C14.7167 16.8329 14.6997 16.8248 14.6848 16.8136C14.6699 16.8024 14.6574 16.7884 14.648 16.7723C14.6386 16.7563 14.6324 16.7385 14.63 16.72V11.14L14.62 10.39L14.6 9.61C14.6 9.38 14.58 9.16 14.56 8.93C14.5566 8.90633 14.5618 8.88221 14.5746 8.86203C14.5875 8.84184 14.6071 8.82693 14.63 8.82H16.41C16.51 8.82 16.59 8.89 16.61 8.98C16.7004 9.27816 16.7442 9.58848 16.74 9.9C17.04 9.55 17.41 9.26 17.82 9.04C18.2848 8.78179 18.8083 8.64749 19.34 8.65C19.41 8.64 19.47 8.69 19.48 8.76V8.8V8.8Z" fill="#9ECE6A"/>
</g>
<defs>
<clipPath id="clip0_2_32">
<rect width="24" height="24" fill="white"/>
</clipPath>
</defs>
</svg>
