<svg width="24" height="24" viewBox="0 0 24 24" fill="none" xmlns="http://www.w3.org/2000/svg">
<path d="M8.54 10.73C8.44 10.42 8.35 10.12 8.25 9.81C8.15 9.5 8.06 9.21 7.98 8.92C7.9 8.64 7.83 8.38 7.76 8.14H7.74C7.65 8.57 7.54 9 7.4 9.43C7.25 9.91 7.1 10.41 6.94 10.91C6.81 11.42 6.65 11.89 6.5 12.31H9.04C8.98 12.1 8.9 11.85 8.81 11.59C8.72 11.32 8.63 11.03 8.54 10.73V10.73ZM17.12 10.44C16.57 10.41 16.05 10.7 15.79 11.2C15.67 11.43 15.6 11.67 15.57 11.92H17.679C17.939 11.92 18.129 11.92 18.249 11.91C18.329 11.9 18.409 11.88 18.479 11.83V11.73C18.479 11.6 18.458 11.48 18.418 11.36C18.24 10.8 17.71 10.42 17.12 10.44V10.44ZM19.75 0.300003H4.25C1.9 0.300003 0 2.2 0 4.55V19.45C0 21.8 1.9 23.7 4.25 23.7H19.75C22.1 23.7 24 21.8 24 19.45V4.55C24 2.2 22.1 0.300003 19.75 0.300003ZM12.71 16.811H10.62C10.55 16.821 10.48 16.77 10.46 16.701L9.64 14.301H5.92L5.16 16.661C5.14 16.751 5.06 16.811 4.97 16.801H3.09C2.98 16.801 2.95 16.741 2.98 16.621L6.2 7.39C6.23 7.29 6.26 7.2 6.3 7.08C6.34 6.87 6.36 6.65 6.36 6.43C6.35 6.38 6.39 6.33 6.44 6.32H9.03C9.1 6.32 9.15 6.35 9.16 6.4L12.81 16.65C12.84 16.76 12.811 16.811 12.71 16.811ZM20.561 12.82C20.54 13.009 20.53 13.15 20.52 13.24C20.51 13.31 20.451 13.37 20.38 13.37C20.32 13.37 20.21 13.38 20.05 13.391C19.891 13.411 19.7 13.42 19.471 13.42C19.241 13.42 19 13.38 18.741 13.38H15.571C15.61 13.69 15.711 14 15.881 14.27C16.062 14.541 16.312 14.75 16.61 14.871C17.01 15.041 17.451 15.131 17.891 15.121C18.241 15.11 18.59 15.081 18.93 15.011C19.241 14.972 19.54 14.892 19.821 14.781C19.871 14.742 19.901 14.761 19.901 14.861V16.392C19.901 16.431 19.891 16.472 19.88 16.511C19.859 16.541 19.84 16.562 19.811 16.581C19.491 16.721 19.161 16.821 18.811 16.881C18.34 16.971 17.871 17.011 17.391 17.001C16.63 17.001 15.991 16.881 15.471 16.651C14.981 16.44 14.55 16.11 14.21 15.701C13.891 15.311 13.66 14.871 13.52 14.391C13.38 13.92 13.311 13.43 13.311 12.93C13.311 12.391 13.391 11.86 13.561 11.34C13.721 10.84 13.971 10.38 14.311 9.97C14.641 9.57 15.05 9.25 15.52 9.02C15.991 8.79 16.55 8.71 17.19 8.71C17.721 8.7 18.25 8.8 18.74 9.02C19.15 9.2 19.51 9.47 19.79 9.82C20.05 10.16 20.26 10.54 20.391 10.96C20.52 11.36 20.58 11.77 20.58 12.18C20.58 12.42 20.57 12.63 20.561 12.82V12.82Z" fill="#9ECE6A"/>
</svg>
