<svg width="24" height="24" viewBox="0 0 24 24" fill="none" xmlns="http://www.w3.org/2000/svg">
<path d="M17.523 15.3414C16.9719 15.3414 16.5237 14.8928 16.5237 14.3417C16.5237 13.7906 16.972 13.3424 17.523 13.3424C18.0741 13.3424 18.5223 13.7907 18.5223 14.3417C18.5224 14.8928 18.0741 15.3414 17.523 15.3414ZM6.477 15.3414C5.9259 15.3414 5.4777 14.8928 5.4777 14.3417C5.4777 13.7906 5.9259 13.3424 6.477 13.3424C7.0281 13.3424 7.4763 13.7907 7.4763 14.3417C7.4763 14.8928 7.028 15.3414 6.477 15.3414ZM17.8815 9.3214L19.8788 5.8622C19.9338 5.76673 19.9486 5.65336 19.9201 5.54695C19.8916 5.44054 19.822 5.34979 19.7267 5.2946C19.6312 5.23963 19.5179 5.22478 19.4115 5.25329C19.305 5.2818 19.2143 5.35136 19.1591 5.4467L17.1368 8.9497C15.5902 8.2439 13.8533 7.8508 12 7.8508C10.1467 7.8508 8.4098 8.2439 6.8633 8.9497L4.841 5.4467C4.78579 5.35135 4.69502 5.2818 4.5886 5.25328C4.48217 5.22477 4.36878 5.23963 4.2733 5.2946C4.1779 5.34973 4.10829 5.44049 4.07977 5.54692C4.05125 5.65335 4.06615 5.76675 4.1212 5.8622L6.1185 9.3214C2.6889 11.1867 0.3432 14.6589 0 18.761H24C23.6565 14.6589 21.3108 11.1867 17.8815 9.3214" fill="#BB9AF7"/>
</svg>
