<svg width="24" height="24" viewBox="0 0 24 24" fill="none" xmlns="http://www.w3.org/2000/svg">
<g clip-path="url(#clip0_2_38)">
<path d="M9.078 3.965C8.49 3.965 7.901 4.254 7.564 4.832L0.236005 17.433C-0.435995 18.589 0.406005 20.034 1.75 20.034H7.47C7.17328 19.7778 6.97576 19.4256 6.91181 19.0389C6.84786 18.6521 6.92153 18.2551 7.12 17.917L12.667 8.404L10.591 4.832C10.4379 4.56673 10.2172 4.34676 9.95142 4.19447C9.68566 4.04218 9.3843 3.96301 9.078 3.965V3.965ZM16.485 6.887C15.998 6.887 15.512 7.123 15.233 7.596L9.17 17.906C8.613 18.851 9.308 20.036 10.421 20.036H22.551C23.665 20.036 24.361 18.851 23.804 17.906L17.737 7.596C17.6092 7.37802 17.4261 7.19761 17.2063 7.07296C16.9865 6.9483 16.7377 6.88382 16.485 6.886V6.887Z" fill="#FF9E64"/>
</g>
<defs>
<clipPath id="clip0_2_38">
<rect width="24" height="24" fill="white"/>
</clipPath>
</defs>
</svg>
