<svg width="24" height="24" viewBox="0 0 24 24" fill="none" xmlns="http://www.w3.org/2000/svg">
<g clip-path="url(#clip0_2_24)">
<path d="M11.8992 0.852493C8.735 0.852493 6.17 3.41749 6.17 6.58169C6.17 8.68369 7.3021 10.5215 8.9898 11.5183L10.631 8.73339C10.6721 8.66349 10.6486 8.57409 10.5815 8.52859C9.9582 8.10589 9.5487 7.39159 9.5487 6.58159C9.5487 5.28359 10.6011 4.23119 11.8992 4.23119C13.1973 4.23119 14.2497 5.28359 14.2497 6.58169C14.2497 7.39149 13.8402 8.10589 13.2169 8.52869C13.1498 8.57409 13.1262 8.66349 13.1674 8.73339L14.8088 11.5184C16.4966 10.5215 17.6287 8.68379 17.6287 6.58169C17.6287 3.41749 15.0634 0.852493 11.8992 0.852493V0.852493ZM5.7292 11.6891C2.565 11.6891 0 14.2541 0 17.4183C0 20.5825 2.565 23.1475 5.7292 23.1475C8.909 23.1475 11.5366 20.448 11.4567 17.2713H8.2313C8.1466 17.2713 8.08 17.343 8.0794 17.4277C8.0712 18.6937 7.015 19.7688 5.7292 19.7688C4.4311 19.7688 3.3787 18.7164 3.3787 17.4183C3.3787 16.1201 4.4311 15.0678 5.7292 15.0678C6.0692 15.0678 6.3922 15.1402 6.6839 15.27C6.7552 15.3018 6.8405 15.2777 6.8801 15.2105L8.5265 12.417C7.6992 11.9534 6.745 11.6891 5.7292 11.6891V11.6891ZM21.1716 12.4505L19.535 15.2383C19.494 15.3083 19.5178 15.3977 19.585 15.4431C20.209 15.8648 20.6198 16.5785 20.6213 17.3883C20.6235 18.6863 19.573 19.7403 18.2748 19.7425C16.9768 19.7448 15.9225 18.6943 15.9203 17.3963C15.9188 16.5865 16.3271 15.8715 16.9497 15.4477C17.0167 15.402 17.0402 15.3124 16.9989 15.2426L15.3525 12.4608C13.6666 13.4606 12.5379 15.3002 12.5415 17.4023C12.5471 20.5664 15.1165 23.1271 18.2808 23.1215C21.4449 23.1161 24.0054 20.5465 24 17.3823C23.9963 15.2801 22.861 13.4443 21.1716 12.4505V12.4505Z" fill="#F7768E"/>
</g>
<defs>
<clipPath id="clip0_2_24">
<rect width="24" height="24" fill="white"/>
</clipPath>
</defs>
</svg>
